When his pregnant fiancee becomes the latest victim of a serial killer, a secret agent blurs the line between good and evil in his pursuit of revenge.

Director:
Jee-woon Kim
Writer:
Hoon-jung Park (screenplay)
Stars:
Byung-hun Lee, Min-sik Choi and Gook-hwan Jeon 

Media info:

General
Complete name                    : E:\torrent2\I.Saw.The.Devil.2010.BluRay rip.mkv.1080p.AVC.ACB-Team\I.Saw.The.Devil.2010.BluRay rip.mkv.1080p.AVC.ACB-Team.mkv
Format                           : Matroska
File size                        : 10.6 GiB
Duration                         : 2h 23mn
Overall bit rate                 : 10.6 Mbps
Movie name                       : movie
Encoded date                     : UTC 2011-05-18 15:36:39
Writing application              : mkvmerge v3.2.0 ('Beginnings') built on Feb 12 2010 16:46:17
Writing library                  : libebml v0.7.9 + libmatroska v0.8.1

Video
ID                               : 1
Format                           : AVC
Format/Info                      : Advanced Video Codec
Format profile                   : High@L4.1
Format settings, CABAC           : Yes
Format settings, ReFrames        : 3 frames
Muxing mode                      : Container profile=Unknown@0.0
Codec ID                         : V_MPEG4/ISO/AVC
Duration                         : 2h 23mn
Bit rate mode                    : Variable
Bit rate                         : 9 144 Kbps
Maximum bit rate                 : 35.0 Mbps
Width                            : 1 920 pixels
Height                           : 1 080 pixels
Display aspect ratio             : 16:9
Frame rate                       : 24.000 fps
Color space                      : YUV
Chroma subsampling               : 4:2:0
Bit depth                        : 8 bits
Scan type                        : Progressive
Bits/(Pixel*Frame)               : 0.184
Stream size                      : 8.92 GiB (84%)
Writing library                  : x264 core 115 r1937 aa21558
Encoding settings                : cabac=1 / ref=1 / deblock=1:0:0 / analyse=0x3:0x3 / me=dia / subme=1 / psy=1 / psy_rd=0.00:0.00 / mixed_ref=0 / me_range=16 / chroma_me=1 / trellis=0 / 8x8dct=1 / cqm=0 / deadzone=21,11 / fast_pskip=1 / chroma_qp_offset=0 / threads=3 / sliced_threads=0 / slices=4 / nr=0 / decimate=1 / interlaced=0 / bluray_compat=1 / constrained_intra=0 / bframes=3 / b_pyramid=1 / b_adapt=1 / b_bias=0 / direct=1 / weightb=1 / open_gop=0 / weightp=1 / keyint=24 / keyint_min=1 / scenecut=40 / intra_refresh=0 / rc_lookahead=0 / rc=abr / mbtree=0 / bitrate=9144 / ratetol=1.0 / qcomp=0.60 / qpmin=0 / qpmax=69 / qpstep=4 / vbv_maxrate=35000 / vbv_bufsize=30000 / nal_hrd=vbr / ip_ratio=1.10 / pb_ratio=1.10 / aq=1:1.00

Audio
ID                               : 2
Format                           : DTS
Format/Info                      : Digital Theater Systems
Codec ID                         : A_DTS
Duration                         : 2h 23mn
Bit rate mode                    : Constant
Bit rate                         : 1 510 Kbps
Channel(s)                       : 6 channels
Channel positions                : Front: L C R, Side: L R, LFE
Sampling rate                    : 48.0 KHz
Bit depth                        : 24 bits
Stream size                      : 1.52 GiB (14%)
Language                         : Korean

Text #1
ID                               : 3
Format                           : VobSub
Muxing mode                      : zlib
Codec ID                         : S_VOBSUB
Codec ID/Info                    : The same subtitle format used on DVDs
Language                         : English

Text #2
ID                               : 4
Format                           : UTF-8
Codec ID                         : S_TEXT/UTF8
Codec ID/Info                    : UTF-8 Plain Text
Language                         : Dutch

Menu
00:00:00.000                     : en:00:00:00.000
00:09:36.625                     : en:00:09:36.625
00:23:14.208                     : en:00:23:14.208
00:32:11.666                     : en:00:32:11.666
00:43:53.166                     : en:00:43:53.166
00:55:56.708                     : en:00:55:56.708
01:06:51.666                     : en:01:06:51.666
01:22:35.416                     : en:01:22:35.416
01:35:38.291                     : en:01:35:38.291
01:50:03.750                     : en:01:50:03.750
02:00:13.708                     : en:02:00:13.708
02:21:22.625                     : en:02:21:22.625

